<?xml version="1.0" encoding="UTF-8" standalone="no"?><svg xmlns="http://www.w3.org/2000/svg" xmlns:xlink="http://www.w3.org/1999/xlink" contentScriptType="application/ecmascript" contentStyleType="text/css" height="569px" preserveAspectRatio="none" style="width:660px;height:569px;background:#FFFFFF;" version="1.1" viewBox="0 0 660 569" width="660px" zoomAndPan="magnify"><defs><filter height="300%" id="fbfa80d1x6dng" width="300%" x="-1" y="-1"><feGaussianBlur result="blurOut" stdDeviation="2.0"/><feColorMatrix in="blurOut" result="blurOut2" type="matrix" values="0 0 0 0 0 0 0 0 0 0 0 0 0 0 0 0 0 0 .4 0"/><feOffset dx="4.0" dy="4.0" in="blurOut2" result="blurOut3"/><feBlend in="SourceGraphic" in2="blurOut3" mode="normal"/></filter></defs><g><!--MD5=[88e869bd94403f7e8b5e64df2bc3d256]
class AppBuilder--><rect fill="#FEFECE" filter="url(#fbfa80d1x6dng)" height="48" id="AppBuilder" style="stroke:#A80036;stroke-width:1.5;" width="99" x="302" y="7"/><ellipse cx="317" cy="23" fill="#ADD1B2" rx="11" ry="11" style="stroke:#A80036;stroke-width:1.0;"/><path d="M319.9688,28.6406 Q319.3906,28.9375 318.75,29.0781 Q318.1094,29.2344 317.4063,29.2344 Q314.9063,29.2344 313.5781,27.5938 Q312.2656,25.9375 312.2656,22.8125 Q312.2656,19.6875 313.5781,18.0313 Q314.9063,16.375 317.4063,16.375 Q318.1094,16.375 318.75,16.5313 Q319.4063,16.6875 319.9688,16.9844 L319.9688,19.7031 Q319.3438,19.125 318.75,18.8594 Q318.1563,18.5781 317.5313,18.5781 Q316.1875,18.5781 315.5,19.6563 Q314.8125,20.7188 314.8125,22.8125 Q314.8125,24.9063 315.5,25.9844 Q316.1875,27.0469 317.5313,27.0469 Q318.1563,27.0469 318.75,26.7813 Q319.3438,26.5 319.9688,25.9219 L319.9688,28.6406 Z " fill="#000000"/><text fill="#000000" font-family="sans-serif" font-size="12" lengthAdjust="spacing" textLength="67" x="331" y="27.1543">AppBuilder</text><line style="stroke:#A80036;stroke-width:1.5;" x1="303" x2="400" y1="39" y2="39"/><line style="stroke:#A80036;stroke-width:1.5;" x1="303" x2="400" y1="47" y2="47"/><!--MD5=[50410012277a53ec9046333ebc973b07]
class DataManager--><rect fill="#FEFECE" filter="url(#fbfa80d1x6dng)" height="48" id="DataManager" style="stroke:#A80036;stroke-width:1.5;" width="117" x="7" y="132"/><ellipse cx="22" cy="148" fill="#ADD1B2" rx="11" ry="11" style="stroke:#A80036;stroke-width:1.0;"/><path d="M24.9688,153.6406 Q24.3906,153.9375 23.75,154.0781 Q23.1094,154.2344 22.4063,154.2344 Q19.9063,154.2344 18.5781,152.5938 Q17.2656,150.9375 17.2656,147.8125 Q17.2656,144.6875 18.5781,143.0313 Q19.9063,141.375 22.4063,141.375 Q23.1094,141.375 23.75,141.5313 Q24.4063,141.6875 24.9688,141.9844 L24.9688,144.7031 Q24.3438,144.125 23.75,143.8594 Q23.1563,143.5781 22.5313,143.5781 Q21.1875,143.5781 20.5,144.6563 Q19.8125,145.7188 19.8125,147.8125 Q19.8125,149.9063 20.5,150.9844 Q21.1875,152.0469 22.5313,152.0469 Q23.1563,152.0469 23.75,151.7813 Q24.3438,151.5 24.9688,150.9219 L24.9688,153.6406 Z " fill="#000000"/><text fill="#000000" font-family="sans-serif" font-size="12" lengthAdjust="spacing" textLength="85" x="36" y="152.1543">DataManager</text><line style="stroke:#A80036;stroke-width:1.5;" x1="8" x2="123" y1="164" y2="164"/><line style="stroke:#A80036;stroke-width:1.5;" x1="8" x2="123" y1="172" y2="172"/><!--MD5=[17367ed95d0fb95b653ac37a2bdc82fb]
class DashboardTabs--><rect fill="#FEFECE" filter="url(#fbfa80d1x6dng)" height="48" id="DashboardTabs" style="stroke:#A80036;stroke-width:1.5;" width="131" x="402" y="382"/><ellipse cx="417" cy="398" fill="#ADD1B2" rx="11" ry="11" style="stroke:#A80036;stroke-width:1.0;"/><path d="M419.9688,403.6406 Q419.3906,403.9375 418.75,404.0781 Q418.1094,404.2344 417.4063,404.2344 Q414.9063,404.2344 413.5781,402.5938 Q412.2656,400.9375 412.2656,397.8125 Q412.2656,394.6875 413.5781,393.0313 Q414.9063,391.375 417.4063,391.375 Q418.1094,391.375 418.75,391.5313 Q419.4063,391.6875 419.9688,391.9844 L419.9688,394.7031 Q419.3438,394.125 418.75,393.8594 Q418.1563,393.5781 417.5313,393.5781 Q416.1875,393.5781 415.5,394.6563 Q414.8125,395.7188 414.8125,397.8125 Q414.8125,399.9063 415.5,400.9844 Q416.1875,402.0469 417.5313,402.0469 Q418.1563,402.0469 418.75,401.7813 Q419.3438,401.5 419.9688,400.9219 L419.9688,403.6406 Z " fill="#000000"/><text fill="#000000" font-family="sans-serif" font-size="12" lengthAdjust="spacing" textLength="99" x="431" y="402.1543">DashboardTabs</text><line style="stroke:#A80036;stroke-width:1.5;" x1="403" x2="532" y1="414" y2="414"/><line style="stroke:#A80036;stroke-width:1.5;" x1="403" x2="532" y1="422" y2="422"/><!--MD5=[62de2b1f8d89a62017caf9bfda449409]
class WidgetModal--><rect fill="#FEFECE" filter="url(#fbfa80d1x6dng)" height="48" id="WidgetModal" style="stroke:#A80036;stroke-width:1.5;" width="112" x="196.5" y="257"/><ellipse cx="211.5" cy="273" fill="#ADD1B2" rx="11" ry="11" style="stroke:#A80036;stroke-width:1.0;"/><path d="M214.4688,278.6406 Q213.8906,278.9375 213.25,279.0781 Q212.6094,279.2344 211.9063,279.2344 Q209.4063,279.2344 208.0781,277.5938 Q206.7656,275.9375 206.7656,272.8125 Q206.7656,269.6875 208.0781,268.0313 Q209.4063,266.375 211.9063,266.375 Q212.6094,266.375 213.25,266.5313 Q213.9063,266.6875 214.4688,266.9844 L214.4688,269.7031 Q213.8438,269.125 213.25,268.8594 Q212.6563,268.5781 212.0313,268.5781 Q210.6875,268.5781 210,269.6563 Q209.3125,270.7188 209.3125,272.8125 Q209.3125,274.9063 210,275.9844 Q210.6875,277.0469 212.0313,277.0469 Q212.6563,277.0469 213.25,276.7813 Q213.8438,276.5 214.4688,275.9219 L214.4688,278.6406 Z " fill="#000000"/><text fill="#000000" font-family="sans-serif" font-size="12" lengthAdjust="spacing" textLength="80" x="225.5" y="277.1543">WidgetModal</text><line style="stroke:#A80036;stroke-width:1.5;" x1="197.5" x2="307.5" y1="289" y2="289"/><line style="stroke:#A80036;stroke-width:1.5;" x1="197.5" x2="307.5" y1="297" y2="297"/><!--MD5=[2443f991007fb77436232ff553f24e52]
class DashboardModal--><rect fill="#FEFECE" filter="url(#fbfa80d1x6dng)" height="48" id="DashboardModal" style="stroke:#A80036;stroke-width:1.5;" width="138" x="398.5" y="257"/><ellipse cx="413.5" cy="273" fill="#ADD1B2" rx="11" ry="11" style="stroke:#A80036;stroke-width:1.0;"/><path d="M416.4688,278.6406 Q415.8906,278.9375 415.25,279.0781 Q414.6094,279.2344 413.9063,279.2344 Q411.4063,279.2344 410.0781,277.5938 Q408.7656,275.9375 408.7656,272.8125 Q408.7656,269.6875 410.0781,268.0313 Q411.4063,266.375 413.9063,266.375 Q414.6094,266.375 415.25,266.5313 Q415.9063,266.6875 416.4688,266.9844 L416.4688,269.7031 Q415.8438,269.125 415.25,268.8594 Q414.6563,268.5781 414.0313,268.5781 Q412.6875,268.5781 412,269.6563 Q411.3125,270.7188 411.3125,272.8125 Q411.3125,274.9063 412,275.9844 Q412.6875,277.0469 414.0313,277.0469 Q414.6563,277.0469 415.25,276.7813 Q415.8438,276.5 416.4688,275.9219 L416.4688,278.6406 Z " fill="#000000"/><text fill="#000000" font-family="sans-serif" font-size="12" lengthAdjust="spacing" textLength="106" x="427.5" y="277.1543">DashboardModal</text><line style="stroke:#A80036;stroke-width:1.5;" x1="399.5" x2="535.5" y1="289" y2="289"/><line style="stroke:#A80036;stroke-width:1.5;" x1="399.5" x2="535.5" y1="297" y2="297"/><!--MD5=[1e45380c90959740d49d8a512f801749]
class Navbar--><rect fill="#FEFECE" filter="url(#fbfa80d1x6dng)" height="48" id="Navbar" style="stroke:#A80036;stroke-width:1.5;" width="76" x="313.5" y="132"/><ellipse cx="328.5" cy="148" fill="#ADD1B2" rx="11" ry="11" style="stroke:#A80036;stroke-width:1.0;"/><path d="M331.4688,153.6406 Q330.8906,153.9375 330.25,154.0781 Q329.6094,154.2344 328.9063,154.2344 Q326.4063,154.2344 325.0781,152.5938 Q323.7656,150.9375 323.7656,147.8125 Q323.7656,144.6875 325.0781,143.0313 Q326.4063,141.375 328.9063,141.375 Q329.6094,141.375 330.25,141.5313 Q330.9063,141.6875 331.4688,141.9844 L331.4688,144.7031 Q330.8438,144.125 330.25,143.8594 Q329.6563,143.5781 329.0313,143.5781 Q327.6875,143.5781 327,144.6563 Q326.3125,145.7188 326.3125,147.8125 Q326.3125,149.9063 327,150.9844 Q327.6875,152.0469 329.0313,152.0469 Q329.6563,152.0469 330.25,151.7813 Q330.8438,151.5 331.4688,150.9219 L331.4688,153.6406 Z " fill="#000000"/><text fill="#000000" font-family="sans-serif" font-size="12" lengthAdjust="spacing" textLength="44" x="342.5" y="152.1543">Navbar</text><line style="stroke:#A80036;stroke-width:1.5;" x1="314.5" x2="388.5" y1="164" y2="164"/><line style="stroke:#A80036;stroke-width:1.5;" x1="314.5" x2="388.5" y1="172" y2="172"/><!--MD5=[7428c10cfeb4aae8470d5b40dbb56474]
class FitbitClient--><rect fill="#FEFECE" filter="url(#fbfa80d1x6dng)" height="48" id="FitbitClient" style="stroke:#A80036;stroke-width:1.5;" width="98" x="16.5" y="257"/><ellipse cx="31.5" cy="273" fill="#ADD1B2" rx="11" ry="11" style="stroke:#A80036;stroke-width:1.0;"/><path d="M34.4688,278.6406 Q33.8906,278.9375 33.25,279.0781 Q32.6094,279.2344 31.9063,279.2344 Q29.4063,279.2344 28.0781,277.5938 Q26.7656,275.9375 26.7656,272.8125 Q26.7656,269.6875 28.0781,268.0313 Q29.4063,266.375 31.9063,266.375 Q32.6094,266.375 33.25,266.5313 Q33.9063,266.6875 34.4688,266.9844 L34.4688,269.7031 Q33.8438,269.125 33.25,268.8594 Q32.6563,268.5781 32.0313,268.5781 Q30.6875,268.5781 30,269.6563 Q29.3125,270.7188 29.3125,272.8125 Q29.3125,274.9063 30,275.9844 Q30.6875,277.0469 32.0313,277.0469 Q32.6563,277.0469 33.25,276.7813 Q33.8438,276.5 34.4688,275.9219 L34.4688,278.6406 Z " fill="#000000"/><text fill="#000000" font-family="sans-serif" font-size="12" lengthAdjust="spacing" textLength="66" x="45.5" y="277.1543">FitbitClient</text><line style="stroke:#A80036;stroke-width:1.5;" x1="17.5" x2="113.5" y1="289" y2="289"/><line style="stroke:#A80036;stroke-width:1.5;" x1="17.5" x2="113.5" y1="297" y2="297"/><!--MD5=[055ae584e8f48d8fc3c3de49aadf0637]
class Dashboard--><rect fill="#FEFECE" filter="url(#fbfa80d1x6dng)" height="48" id="Dashboard" style="stroke:#A80036;stroke-width:1.5;" width="101" x="417" y="507"/><ellipse cx="432" cy="523" fill="#ADD1B2" rx="11" ry="11" style="stroke:#A80036;stroke-width:1.0;"/><path d="M434.9688,528.6406 Q434.3906,528.9375 433.75,529.0781 Q433.1094,529.2344 432.4063,529.2344 Q429.9063,529.2344 428.5781,527.5938 Q427.2656,525.9375 427.2656,522.8125 Q427.2656,519.6875 428.5781,518.0313 Q429.9063,516.375 432.4063,516.375 Q433.1094,516.375 433.75,516.5313 Q434.4063,516.6875 434.9688,516.9844 L434.9688,519.7031 Q434.3438,519.125 433.75,518.8594 Q433.1563,518.5781 432.5313,518.5781 Q431.1875,518.5781 430.5,519.6563 Q429.8125,520.7188 429.8125,522.8125 Q429.8125,524.9063 430.5,525.9844 Q431.1875,527.0469 432.5313,527.0469 Q433.1563,527.0469 433.75,526.7813 Q434.3438,526.5 434.9688,525.9219 L434.9688,528.6406 Z " fill="#000000"/><text fill="#000000" font-family="sans-serif" font-size="12" lengthAdjust="spacing" textLength="69" x="446" y="527.1543">Dashboard</text><line style="stroke:#A80036;stroke-width:1.5;" x1="418" x2="517" y1="539" y2="539"/><line style="stroke:#A80036;stroke-width:1.5;" x1="418" x2="517" y1="547" y2="547"/><!--MD5=[4d8501a25de95760f37c7828d808a07a]
class WidgetInterface--><rect fill="#FEFECE" filter="url(#fbfa80d1x6dng)" height="48" id="WidgetInterface" style="stroke:#A80036;stroke-width:1.5;" width="131" x="187" y="382"/><ellipse cx="202" cy="398" fill="#ADD1B2" rx="11" ry="11" style="stroke:#A80036;stroke-width:1.0;"/><path d="M204.9688,403.6406 Q204.3906,403.9375 203.75,404.0781 Q203.1094,404.2344 202.4063,404.2344 Q199.9063,404.2344 198.5781,402.5938 Q197.2656,400.9375 197.2656,397.8125 Q197.2656,394.6875 198.5781,393.0313 Q199.9063,391.375 202.4063,391.375 Q203.1094,391.375 203.75,391.5313 Q204.4063,391.6875 204.9688,391.9844 L204.9688,394.7031 Q204.3438,394.125 203.75,393.8594 Q203.1563,393.5781 202.5313,393.5781 Q201.1875,393.5781 200.5,394.6563 Q199.8125,395.7188 199.8125,397.8125 Q199.8125,399.9063 200.5,400.9844 Q201.1875,402.0469 202.5313,402.0469 Q203.1563,402.0469 203.75,401.7813 Q204.3438,401.5 204.9688,400.9219 L204.9688,403.6406 Z " fill="#000000"/><text fill="#000000" font-family="sans-serif" font-size="12" lengthAdjust="spacing" textLength="99" x="216" y="402.1543">WidgetInterface</text><line style="stroke:#A80036;stroke-width:1.5;" x1="188" x2="317" y1="414" y2="414"/><line style="stroke:#A80036;stroke-width:1.5;" x1="188" x2="317" y1="422" y2="422"/><!--MD5=[4302a0a0f5c556ebcb36bcfddc12559f]
class <<Widgets>>--><rect fill="#FEFECE" filter="url(#fbfa80d1x6dng)" height="48" id="&lt;&lt;Widgets&gt;&gt;" style="stroke:#A80036;stroke-width:1.5;" width="122" x="191.5" y="507"/><ellipse cx="206.5" cy="523" fill="#ADD1B2" rx="11" ry="11" style="stroke:#A80036;stroke-width:1.0;"/><path d="M209.4688,528.6406 Q208.8906,528.9375 208.25,529.0781 Q207.6094,529.2344 206.9063,529.2344 Q204.4063,529.2344 203.0781,527.5938 Q201.7656,525.9375 201.7656,522.8125 Q201.7656,519.6875 203.0781,518.0313 Q204.4063,516.375 206.9063,516.375 Q207.6094,516.375 208.25,516.5313 Q208.9063,516.6875 209.4688,516.9844 L209.4688,519.7031 Q208.8438,519.125 208.25,518.8594 Q207.6563,518.5781 207.0313,518.5781 Q205.6875,518.5781 205,519.6563 Q204.3125,520.7188 204.3125,522.8125 Q204.3125,524.9063 205,525.9844 Q205.6875,527.0469 207.0313,527.0469 Q207.6563,527.0469 208.25,526.7813 Q208.8438,526.5 209.4688,525.9219 L209.4688,528.6406 Z " fill="#000000"/><text fill="#000000" font-family="sans-serif" font-size="12" lengthAdjust="spacing" textLength="90" x="220.5" y="527.1543">&lt;&lt;Widgets&gt;&gt;</text><line style="stroke:#A80036;stroke-width:1.5;" x1="192.5" x2="312.5" y1="539" y2="539"/><line style="stroke:#A80036;stroke-width:1.5;" x1="192.5" x2="312.5" y1="547" y2="547"/><!--MD5=[3c13038d26ee8dfd454d52346b117506]
reverse link AppBuilder to DataManager--><path codeLine="1" d="M288.64,37.54 C220.81,44.74 118.57,59.5 89.5,85 C76.08,96.78 70.15,116.4 67.54,131.88 " fill="none" id="AppBuilder-backto-DataManager" style="stroke:#A80036;stroke-width:1.0;"/><polygon fill="#FFFFFF" points="301.72,36.21,295.3429,32.8436,289.7827,37.4353,296.1598,40.8018,301.72,36.21" style="stroke:#A80036;stroke-width:1.0;"/><text fill="#000000" font-family="sans-serif" font-size="13" lengthAdjust="spacing" textLength="77" x="90.5" y="98.0669">is passed to</text><!--MD5=[08793a305f87e3eaaf900bb49021a031]
reverse link AppBuilder to DashboardTabs--><path codeLine="2" d="M413.5,47.53 C456.81,61.85 511.81,87.78 540.5,132 C593.83,214.19 602.49,266.58 554.5,352 C547.57,364.34 536.48,374.14 524.5,381.78 " fill="none" id="AppBuilder-backto-DashboardTabs" style="stroke:#A80036;stroke-width:1.0;"/><polygon fill="#A80036" points="401.06,43.62,405.5894,49.2311,412.5109,47.2083,407.9816,41.5972,401.06,43.62" style="stroke:#A80036;stroke-width:1.0;"/><text fill="#000000" font-family="sans-serif" font-size="13" lengthAdjust="spacing" textLength="68" x="584.5" y="223.0669">created by</text><!--MD5=[32bf65063b890252baa3ce5b43ac8d10]
reverse link AppBuilder to WidgetModal--><path codeLine="3" d="M293.36,62.15 C267.53,78.92 239.78,102.43 225.5,132 C205.73,172.92 225.31,226.59 239.88,256.77 " fill="none" id="AppBuilder-backto-WidgetModal" style="stroke:#A80036;stroke-width:1.0;"/><polygon fill="#A80036" points="304.65,55.15,297.443,54.9061,294.446,61.4649,301.653,61.7088,304.65,55.15" style="stroke:#A80036;stroke-width:1.0;"/><text fill="#000000" font-family="sans-serif" font-size="13" lengthAdjust="spacing" textLength="68" x="226.5" y="160.5669">created by</text><!--MD5=[5bdd7a6bbaf0a44102f851f16438859e]
reverse link AppBuilder to DashboardModal--><path codeLine="4" d="M408.95,63.06 C416.81,69.41 424.05,76.73 429.5,85 C465.02,138.84 468.92,218.07 468.45,256.87 " fill="none" id="AppBuilder-backto-DashboardModal" style="stroke:#A80036;stroke-width:1.0;"/><polygon fill="#A80036" points="398.34,55.25,400.8042,62.027,408.0076,62.3589,405.5435,55.5819,398.34,55.25" style="stroke:#A80036;stroke-width:1.0;"/><text fill="#000000" font-family="sans-serif" font-size="13" lengthAdjust="spacing" textLength="68" x="463.5" y="160.5669">created by</text><!--MD5=[92506b5434d735a69e4f47f32d26e18f]
reverse link AppBuilder to Navbar--><path codeLine="5" d="M351.5,68.21 C351.5,88.83 351.5,114.04 351.5,131.97 " fill="none" id="AppBuilder-backto-Navbar" style="stroke:#A80036;stroke-width:1.0;"/><polygon fill="#A80036" points="351.5,55.14,347.5,61.14,351.5,67.14,355.5,61.14,351.5,55.14" style="stroke:#A80036;stroke-width:1.0;"/><text fill="#000000" font-family="sans-serif" font-size="13" lengthAdjust="spacing" textLength="68" x="352.5" y="98.0669">created by</text><!--MD5=[4bc72d518290e5249f2df7ba4cb4bdbe]
reverse link DataManager to FitbitClient--><path codeLine="7" d="M65.5,193.21 C65.5,213.83 65.5,239.04 65.5,256.97 " fill="none" id="DataManager-backto-FitbitClient" style="stroke:#A80036;stroke-width:1.0;"/><polygon fill="#FFFFFF" points="65.5,180.14,61.5,186.14,65.5,192.14,69.5,186.14,65.5,180.14" style="stroke:#A80036;stroke-width:1.0;"/><text fill="#000000" font-family="sans-serif" font-size="13" lengthAdjust="spacing" textLength="68" x="66.5" y="223.0669">created by</text><!--MD5=[23431f938e1f04336d1d03821b9c014f]
reverse link DashboardTabs to Dashboard--><path codeLine="9" d="M467.5,443.21 C467.5,463.83 467.5,489.04 467.5,506.97 " fill="none" id="DashboardTabs-backto-Dashboard" style="stroke:#A80036;stroke-width:1.0;"/><polygon fill="#A80036" points="467.5,430.14,463.5,436.14,467.5,442.14,471.5,436.14,467.5,430.14" style="stroke:#A80036;stroke-width:1.0;"/><text fill="#000000" font-family="sans-serif" font-size="13" lengthAdjust="spacing" textLength="32" x="468.5" y="473.0669">owns</text><text fill="#000000" font-family="sans-serif" font-size="13" lengthAdjust="spacing" textLength="8" x="458.525" y="449.9353">1</text><text fill="#000000" font-family="sans-serif" font-size="13" lengthAdjust="spacing" textLength="36" x="426.8875" y="495.9743">many</text><!--MD5=[b5560e63920dc75c1ba85642fac2970f]
reverse link WidgetModal to WidgetInterface--><path codeLine="11" d="M252.5,318.21 C252.5,338.83 252.5,364.04 252.5,381.97 " fill="none" id="WidgetModal-backto-WidgetInterface" style="stroke:#A80036;stroke-width:1.0;"/><polygon fill="#FFFFFF" points="252.5,305.14,248.5,311.14,252.5,317.14,256.5,311.14,252.5,305.14" style="stroke:#A80036;stroke-width:1.0;"/><text fill="#000000" font-family="sans-serif" font-size="13" lengthAdjust="spacing" textLength="39" x="253.5" y="348.0669">knows</text><!--MD5=[47ac89f88c8a0528a69e1e465920a314]
reverse link WidgetModal to DashboardTabs--><path codeLine="12" d="M304.71,311.87 C342.42,333.44 392.61,362.16 427.24,381.97 " fill="none" id="WidgetModal-backto-DashboardTabs" style="stroke:#A80036;stroke-width:1.0;"/><polygon fill="#A80036" points="292.94,305.14,296.1614,311.5916,303.3557,311.0993,300.1343,304.6478,292.94,305.14" style="stroke:#A80036;stroke-width:1.0;"/><text fill="#000000" font-family="sans-serif" font-size="13" lengthAdjust="spacing" textLength="77" x="374.5" y="348.0669">is passed to</text><!--MD5=[a41ec1f01b0b5ed0eb865a6d88474f11]
reverse link DashboardModal to DashboardTabs--><path codeLine="14" d="M467.5,318.21 C467.5,338.83 467.5,364.04 467.5,381.97 " fill="none" id="DashboardModal-backto-DashboardTabs" style="stroke:#A80036;stroke-width:1.0;"/><polygon fill="#A80036" points="467.5,305.14,463.5,311.14,467.5,317.14,471.5,311.14,467.5,305.14" style="stroke:#A80036;stroke-width:1.0;"/><text fill="#000000" font-family="sans-serif" font-size="13" lengthAdjust="spacing" textLength="77" x="468.5" y="348.0669">is passed to</text><!--MD5=[d8393579179b114a1b42f64bd9112708]
reverse link Navbar to DashboardModal--><path codeLine="16" d="M354.43,193.35 C356.83,205.03 361.07,217.4 368.5,227 C378.11,239.41 391.46,249.26 405.26,256.92 " fill="none" id="Navbar-backto-DashboardModal" style="stroke:#A80036;stroke-width:1.0;"/><polygon fill="#A80036" points="352.38,180.18,349.3509,186.724,354.2265,192.0371,357.2556,185.493,352.38,180.18" style="stroke:#A80036;stroke-width:1.0;"/><text fill="#000000" font-family="sans-serif" font-size="13" lengthAdjust="spacing" textLength="77" x="369.5" y="223.0669">is passed to</text><!--MD5=[5fb8953d29ff567b2bcfdd42cb4fca8e]
reverse link Navbar to WidgetModal--><path codeLine="17" d="M300.95,170.74 C281.34,178.81 260.9,191.23 249.5,210 C241.04,223.93 242.26,242.46 245.34,256.95 " fill="none" id="Navbar-backto-WidgetModal" style="stroke:#A80036;stroke-width:1.0;"/><polygon fill="#A80036" points="313.29,166.15,306.2707,164.4979,302.0459,170.3418,309.0652,171.9939,313.29,166.15" style="stroke:#A80036;stroke-width:1.0;"/><text fill="#000000" font-family="sans-serif" font-size="13" lengthAdjust="spacing" textLength="77" x="250.5" y="223.0669">is passed to</text><!--MD5=[8469e6738d4fd2598b2f613e74ad8ed8]
reverse link WidgetInterface to <<Widgets>>--><path codeLine="19" d="M252.5,450.17 C252.5,469.29 252.5,491.02 252.5,506.97 " fill="none" id="WidgetInterface-backto-&lt;&lt;Widgets&gt;&gt;" style="stroke:#A80036;stroke-width:1.0;"/><polygon fill="none" points="245.5,450.14,252.5,430.14,259.5,450.14,245.5,450.14" style="stroke:#A80036;stroke-width:1.0;"/><!--MD5=[4d756731bb3b9dec585d959939d874b9]
@startuml
AppBuilder o- - DataManager : "is passed to"
AppBuilder *- - DashboardTabs : "created by"
AppBuilder *- - WidgetModal : "created by"
AppBuilder *- - DashboardModal: "created by"
AppBuilder *- - Navbar : "created by"

DataManager o- - FitbitClient : "created by"

DashboardTabs "1" *- - "many" Dashboard : owns

WidgetModal o- - WidgetInterface : knows
WidgetModal *- - DashboardTabs : "is passed to"

DashboardModal *- - DashboardTabs : "is passed to"

Navbar *- - DashboardModal : "is passed to"
Navbar *- - WidgetModal : "is passed to"

WidgetInterface <|- - "<<Widgets>>"
@enduml

PlantUML version 1.2021.16(Wed Dec 08 17:25:22 UTC 2021)
(GPL source distribution)
Java Runtime: OpenJDK Runtime Environment
JVM: OpenJDK 64-Bit Server VM
Default Encoding: UTF-8
Language: en
Country: US
--></g></svg>